<mxfile host="app.diagrams.net" modified="2023-11-15T17:00:01.299Z" agent="Mozilla/5.0 (Windows NT 10.0; Win64; x64) AppleWebKit/537.36 (KHTML, like Gecko) Chrome/119.0.0.0 Safari/537.36" etag="yFZIgThxgNmw7aCGFfd3" version="22.1.1" type="device">
  <diagram name="Страница — 1" id="JZuIjCBCCXHGmfb0dtvx">
    <mxGraphModel dx="2501" dy="750" grid="1" gridSize="10" guides="1" tooltips="1" connect="1" arrows="1" fold="1" page="1" pageScale="1" pageWidth="827" pageHeight="1169" math="0" shadow="0">
      <root>
        <mxCell id="0" />
        <mxCell id="1" parent="0" />
        <mxCell id="tIqFCr36syXGPRYPaztV-1" value="1" style="ellipse;whiteSpace=wrap;html=1;aspect=fixed;" parent="1" vertex="1">
          <mxGeometry x="-453" y="100" width="60" height="60" as="geometry" />
        </mxCell>
        <mxCell id="tIqFCr36syXGPRYPaztV-3" value="2" style="ellipse;whiteSpace=wrap;html=1;aspect=fixed;" parent="1" vertex="1">
          <mxGeometry x="-453" y="190" width="60" height="60" as="geometry" />
        </mxCell>
        <mxCell id="tIqFCr36syXGPRYPaztV-4" value="" style="endArrow=classic;html=1;rounded=0;exitX=0.5;exitY=1;exitDx=0;exitDy=0;" parent="1" source="tIqFCr36syXGPRYPaztV-1" target="tIqFCr36syXGPRYPaztV-3" edge="1">
          <mxGeometry width="50" height="50" relative="1" as="geometry">
            <mxPoint x="-440" y="310" as="sourcePoint" />
            <mxPoint x="-390" y="260" as="targetPoint" />
          </mxGeometry>
        </mxCell>
        <mxCell id="tIqFCr36syXGPRYPaztV-5" value="3" style="ellipse;whiteSpace=wrap;html=1;aspect=fixed;" parent="1" vertex="1">
          <mxGeometry x="-453" y="280" width="60" height="60" as="geometry" />
        </mxCell>
        <mxCell id="tIqFCr36syXGPRYPaztV-7" value="" style="endArrow=classic;html=1;rounded=0;exitX=0.5;exitY=1;exitDx=0;exitDy=0;entryX=0.5;entryY=0;entryDx=0;entryDy=0;" parent="1" source="tIqFCr36syXGPRYPaztV-3" target="tIqFCr36syXGPRYPaztV-5" edge="1">
          <mxGeometry width="50" height="50" relative="1" as="geometry">
            <mxPoint x="-440" y="210" as="sourcePoint" />
            <mxPoint x="-390" y="160" as="targetPoint" />
          </mxGeometry>
        </mxCell>
        <mxCell id="tIqFCr36syXGPRYPaztV-8" value="4" style="ellipse;whiteSpace=wrap;html=1;aspect=fixed;" parent="1" vertex="1">
          <mxGeometry x="-453" y="370" width="60" height="60" as="geometry" />
        </mxCell>
        <mxCell id="tIqFCr36syXGPRYPaztV-9" value="5" style="ellipse;whiteSpace=wrap;html=1;aspect=fixed;" parent="1" vertex="1">
          <mxGeometry x="-453" y="460" width="60" height="60" as="geometry" />
        </mxCell>
        <mxCell id="tIqFCr36syXGPRYPaztV-10" value="6" style="ellipse;whiteSpace=wrap;html=1;aspect=fixed;" parent="1" vertex="1">
          <mxGeometry x="-453" y="550" width="60" height="60" as="geometry" />
        </mxCell>
        <mxCell id="tIqFCr36syXGPRYPaztV-11" value="7" style="ellipse;whiteSpace=wrap;html=1;aspect=fixed;" parent="1" vertex="1">
          <mxGeometry x="-350" y="490" width="60" height="60" as="geometry" />
        </mxCell>
        <mxCell id="tIqFCr36syXGPRYPaztV-12" value="" style="endArrow=classic;html=1;rounded=0;exitX=0.5;exitY=1;exitDx=0;exitDy=0;entryX=0.5;entryY=0;entryDx=0;entryDy=0;" parent="1" source="tIqFCr36syXGPRYPaztV-5" target="tIqFCr36syXGPRYPaztV-8" edge="1">
          <mxGeometry width="50" height="50" relative="1" as="geometry">
            <mxPoint x="-440" y="410" as="sourcePoint" />
            <mxPoint x="-390" y="360" as="targetPoint" />
          </mxGeometry>
        </mxCell>
        <mxCell id="tIqFCr36syXGPRYPaztV-13" value="" style="endArrow=classic;html=1;rounded=0;exitX=0.5;exitY=1;exitDx=0;exitDy=0;entryX=0.5;entryY=0;entryDx=0;entryDy=0;" parent="1" source="tIqFCr36syXGPRYPaztV-8" target="tIqFCr36syXGPRYPaztV-9" edge="1">
          <mxGeometry width="50" height="50" relative="1" as="geometry">
            <mxPoint x="-440" y="410" as="sourcePoint" />
            <mxPoint x="-390" y="360" as="targetPoint" />
          </mxGeometry>
        </mxCell>
        <mxCell id="tIqFCr36syXGPRYPaztV-14" value="" style="endArrow=classic;html=1;rounded=0;exitX=0.5;exitY=1;exitDx=0;exitDy=0;entryX=0.5;entryY=0;entryDx=0;entryDy=0;" parent="1" source="tIqFCr36syXGPRYPaztV-9" target="tIqFCr36syXGPRYPaztV-10" edge="1">
          <mxGeometry width="50" height="50" relative="1" as="geometry">
            <mxPoint x="-440" y="410" as="sourcePoint" />
            <mxPoint x="-390" y="360" as="targetPoint" />
          </mxGeometry>
        </mxCell>
        <mxCell id="tIqFCr36syXGPRYPaztV-15" value="" style="endArrow=classic;html=1;rounded=0;exitX=0.5;exitY=1;exitDx=0;exitDy=0;" parent="1" source="tIqFCr36syXGPRYPaztV-10" target="tIqFCr36syXGPRYPaztV-11" edge="1">
          <mxGeometry width="50" height="50" relative="1" as="geometry">
            <mxPoint x="-440" y="410" as="sourcePoint" />
            <mxPoint x="-320" y="490" as="targetPoint" />
            <Array as="points">
              <mxPoint x="-423" y="640" />
              <mxPoint x="-320" y="640" />
            </Array>
          </mxGeometry>
        </mxCell>
        <mxCell id="tIqFCr36syXGPRYPaztV-16" value="" style="endArrow=classic;html=1;rounded=0;exitX=0.5;exitY=0;exitDx=0;exitDy=0;entryX=1;entryY=0.5;entryDx=0;entryDy=0;" parent="1" source="tIqFCr36syXGPRYPaztV-11" target="tIqFCr36syXGPRYPaztV-8" edge="1">
          <mxGeometry width="50" height="50" relative="1" as="geometry">
            <mxPoint x="-440" y="510" as="sourcePoint" />
            <mxPoint x="-390" y="460" as="targetPoint" />
            <Array as="points">
              <mxPoint x="-320" y="400" />
            </Array>
          </mxGeometry>
        </mxCell>
        <mxCell id="tIqFCr36syXGPRYPaztV-17" value="8" style="ellipse;whiteSpace=wrap;html=1;aspect=fixed;" parent="1" vertex="1">
          <mxGeometry x="-453" y="680" width="60" height="60" as="geometry" />
        </mxCell>
        <mxCell id="tIqFCr36syXGPRYPaztV-18" value="" style="endArrow=classic;html=1;rounded=0;exitX=0;exitY=0.5;exitDx=0;exitDy=0;entryX=0.5;entryY=0;entryDx=0;entryDy=0;" parent="1" source="tIqFCr36syXGPRYPaztV-8" target="tIqFCr36syXGPRYPaztV-17" edge="1">
          <mxGeometry width="50" height="50" relative="1" as="geometry">
            <mxPoint x="-440" y="610" as="sourcePoint" />
            <mxPoint x="-390" y="560" as="targetPoint" />
            <Array as="points">
              <mxPoint x="-500" y="400" />
              <mxPoint x="-500" y="660" />
              <mxPoint x="-423" y="660" />
            </Array>
          </mxGeometry>
        </mxCell>
        <mxCell id="tIqFCr36syXGPRYPaztV-19" value="9" style="ellipse;whiteSpace=wrap;html=1;aspect=fixed;" parent="1" vertex="1">
          <mxGeometry x="-458" y="770" width="70" height="70" as="geometry" />
        </mxCell>
        <mxCell id="tIqFCr36syXGPRYPaztV-20" value="" style="endArrow=classic;html=1;rounded=0;exitX=0.5;exitY=1;exitDx=0;exitDy=0;entryX=0.5;entryY=0;entryDx=0;entryDy=0;" parent="1" source="tIqFCr36syXGPRYPaztV-17" target="tIqFCr36syXGPRYPaztV-19" edge="1">
          <mxGeometry width="50" height="50" relative="1" as="geometry">
            <mxPoint x="-480" y="600" as="sourcePoint" />
            <mxPoint x="-430" y="550" as="targetPoint" />
          </mxGeometry>
        </mxCell>
        <mxCell id="tIqFCr36syXGPRYPaztV-22" value="" style="endArrow=classic;html=1;rounded=0;exitX=1;exitY=0.5;exitDx=0;exitDy=0;entryX=0.5;entryY=0;entryDx=0;entryDy=0;" parent="1" source="tIqFCr36syXGPRYPaztV-19" target="tIqFCr36syXGPRYPaztV-28" edge="1">
          <mxGeometry width="50" height="50" relative="1" as="geometry">
            <mxPoint x="-480" y="710" as="sourcePoint" />
            <mxPoint x="-423" y="870" as="targetPoint" />
            <Array as="points">
              <mxPoint x="-290" y="805" />
            </Array>
          </mxGeometry>
        </mxCell>
        <mxCell id="tIqFCr36syXGPRYPaztV-28" value="10" style="ellipse;whiteSpace=wrap;html=1;aspect=fixed;" parent="1" vertex="1">
          <mxGeometry x="-330" y="870" width="80" height="80" as="geometry" />
        </mxCell>
        <mxCell id="tIqFCr36syXGPRYPaztV-29" value="13" style="ellipse;whiteSpace=wrap;html=1;" parent="1" vertex="1">
          <mxGeometry x="-450" y="940" width="80" height="80" as="geometry" />
        </mxCell>
        <mxCell id="tIqFCr36syXGPRYPaztV-30" value="15" style="ellipse;whiteSpace=wrap;html=1;" parent="1" vertex="1">
          <mxGeometry x="-560" y="1030" width="80" height="80" as="geometry" />
        </mxCell>
        <mxCell id="tIqFCr36syXGPRYPaztV-31" value="17" style="ellipse;whiteSpace=wrap;html=1;" parent="1" vertex="1">
          <mxGeometry x="-660" y="1120" width="80" height="80" as="geometry" />
        </mxCell>
        <mxCell id="tIqFCr36syXGPRYPaztV-32" value="11" style="ellipse;whiteSpace=wrap;html=1;" parent="1" vertex="1">
          <mxGeometry x="-250" y="970" width="80" height="80" as="geometry" />
        </mxCell>
        <mxCell id="tIqFCr36syXGPRYPaztV-33" value="14" style="ellipse;whiteSpace=wrap;html=1;" parent="1" vertex="1">
          <mxGeometry x="-360" y="1030" width="80" height="80" as="geometry" />
        </mxCell>
        <mxCell id="tIqFCr36syXGPRYPaztV-34" value="16" style="ellipse;whiteSpace=wrap;html=1;" parent="1" vertex="1">
          <mxGeometry x="-463" y="1130" width="80" height="80" as="geometry" />
        </mxCell>
        <mxCell id="tIqFCr36syXGPRYPaztV-35" value="12" style="ellipse;whiteSpace=wrap;html=1;" parent="1" vertex="1">
          <mxGeometry x="-360" y="1220" width="80" height="80" as="geometry" />
        </mxCell>
        <mxCell id="tIqFCr36syXGPRYPaztV-37" value="" style="endArrow=classic;html=1;rounded=0;exitX=1;exitY=0.5;exitDx=0;exitDy=0;entryX=0.5;entryY=0;entryDx=0;entryDy=0;" parent="1" source="tIqFCr36syXGPRYPaztV-28" target="tIqFCr36syXGPRYPaztV-32" edge="1">
          <mxGeometry width="50" height="50" relative="1" as="geometry">
            <mxPoint x="-430" y="1040" as="sourcePoint" />
            <mxPoint x="-380" y="990" as="targetPoint" />
            <Array as="points">
              <mxPoint x="-210" y="910" />
            </Array>
          </mxGeometry>
        </mxCell>
        <mxCell id="tIqFCr36syXGPRYPaztV-38" value="" style="endArrow=classic;html=1;rounded=0;exitX=0;exitY=0.5;exitDx=0;exitDy=0;entryX=0.5;entryY=0;entryDx=0;entryDy=0;" parent="1" source="tIqFCr36syXGPRYPaztV-28" target="tIqFCr36syXGPRYPaztV-29" edge="1">
          <mxGeometry width="50" height="50" relative="1" as="geometry">
            <mxPoint x="-430" y="1040" as="sourcePoint" />
            <mxPoint x="-380" y="990" as="targetPoint" />
            <Array as="points">
              <mxPoint x="-410" y="910" />
            </Array>
          </mxGeometry>
        </mxCell>
        <mxCell id="tIqFCr36syXGPRYPaztV-39" value="" style="endArrow=classic;html=1;rounded=0;entryX=0.5;entryY=0;entryDx=0;entryDy=0;exitX=1;exitY=0.5;exitDx=0;exitDy=0;" parent="1" source="tIqFCr36syXGPRYPaztV-29" target="tIqFCr36syXGPRYPaztV-33" edge="1">
          <mxGeometry width="50" height="50" relative="1" as="geometry">
            <mxPoint x="-430" y="1040" as="sourcePoint" />
            <mxPoint x="-380" y="990" as="targetPoint" />
            <Array as="points">
              <mxPoint x="-320" y="980" />
            </Array>
          </mxGeometry>
        </mxCell>
        <mxCell id="tIqFCr36syXGPRYPaztV-40" value="" style="endArrow=classic;html=1;rounded=0;exitX=0;exitY=0.5;exitDx=0;exitDy=0;entryX=0.5;entryY=0;entryDx=0;entryDy=0;" parent="1" source="tIqFCr36syXGPRYPaztV-29" target="tIqFCr36syXGPRYPaztV-30" edge="1">
          <mxGeometry width="50" height="50" relative="1" as="geometry">
            <mxPoint x="-430" y="1040" as="sourcePoint" />
            <mxPoint x="-380" y="990" as="targetPoint" />
            <Array as="points">
              <mxPoint x="-520" y="980" />
            </Array>
          </mxGeometry>
        </mxCell>
        <mxCell id="tIqFCr36syXGPRYPaztV-41" value="" style="endArrow=classic;html=1;rounded=0;exitX=1;exitY=0.5;exitDx=0;exitDy=0;entryX=0.5;entryY=0;entryDx=0;entryDy=0;" parent="1" source="tIqFCr36syXGPRYPaztV-30" target="tIqFCr36syXGPRYPaztV-34" edge="1">
          <mxGeometry width="50" height="50" relative="1" as="geometry">
            <mxPoint x="-430" y="1040" as="sourcePoint" />
            <mxPoint x="-380" y="990" as="targetPoint" />
            <Array as="points">
              <mxPoint x="-423" y="1070" />
            </Array>
          </mxGeometry>
        </mxCell>
        <mxCell id="tIqFCr36syXGPRYPaztV-42" value="" style="endArrow=classic;html=1;rounded=0;exitX=0;exitY=0.5;exitDx=0;exitDy=0;entryX=0.5;entryY=0;entryDx=0;entryDy=0;" parent="1" source="tIqFCr36syXGPRYPaztV-30" target="tIqFCr36syXGPRYPaztV-31" edge="1">
          <mxGeometry width="50" height="50" relative="1" as="geometry">
            <mxPoint x="-430" y="1040" as="sourcePoint" />
            <mxPoint x="-380" y="990" as="targetPoint" />
            <Array as="points">
              <mxPoint x="-620" y="1070" />
            </Array>
          </mxGeometry>
        </mxCell>
        <mxCell id="tIqFCr36syXGPRYPaztV-43" value="" style="endArrow=classic;html=1;rounded=0;exitX=0.5;exitY=1;exitDx=0;exitDy=0;entryX=0;entryY=0.5;entryDx=0;entryDy=0;" parent="1" source="tIqFCr36syXGPRYPaztV-31" target="tIqFCr36syXGPRYPaztV-35" edge="1">
          <mxGeometry width="50" height="50" relative="1" as="geometry">
            <mxPoint x="-430" y="1040" as="sourcePoint" />
            <mxPoint x="-380" y="990" as="targetPoint" />
            <Array as="points">
              <mxPoint x="-620" y="1260" />
            </Array>
          </mxGeometry>
        </mxCell>
        <mxCell id="tIqFCr36syXGPRYPaztV-44" value="" style="endArrow=classic;html=1;rounded=0;exitX=0.5;exitY=1;exitDx=0;exitDy=0;" parent="1" source="tIqFCr36syXGPRYPaztV-34" edge="1">
          <mxGeometry width="50" height="50" relative="1" as="geometry">
            <mxPoint x="-430" y="1040" as="sourcePoint" />
            <mxPoint x="-423" y="1260" as="targetPoint" />
          </mxGeometry>
        </mxCell>
        <mxCell id="tIqFCr36syXGPRYPaztV-45" value="" style="endArrow=classic;html=1;rounded=0;entryX=0.5;entryY=0;entryDx=0;entryDy=0;" parent="1" target="tIqFCr36syXGPRYPaztV-35" edge="1">
          <mxGeometry width="50" height="50" relative="1" as="geometry">
            <mxPoint x="-320" y="1110" as="sourcePoint" />
            <mxPoint x="-380" y="990" as="targetPoint" />
          </mxGeometry>
        </mxCell>
        <mxCell id="tIqFCr36syXGPRYPaztV-46" value="" style="endArrow=classic;html=1;rounded=0;exitX=0.5;exitY=1;exitDx=0;exitDy=0;" parent="1" source="tIqFCr36syXGPRYPaztV-32" edge="1">
          <mxGeometry width="50" height="50" relative="1" as="geometry">
            <mxPoint x="-430" y="1040" as="sourcePoint" />
            <mxPoint x="-320" y="1170" as="targetPoint" />
            <Array as="points">
              <mxPoint x="-210" y="1170" />
            </Array>
          </mxGeometry>
        </mxCell>
        <mxCell id="tIqFCr36syXGPRYPaztV-47" value="" style="endArrow=classic;html=1;rounded=0;exitX=1;exitY=0.5;exitDx=0;exitDy=0;entryX=0.983;entryY=0.322;entryDx=0;entryDy=0;entryPerimeter=0;" parent="1" source="tIqFCr36syXGPRYPaztV-35" target="tIqFCr36syXGPRYPaztV-28" edge="1">
          <mxGeometry width="50" height="50" relative="1" as="geometry">
            <mxPoint x="-430" y="1040" as="sourcePoint" />
            <mxPoint x="-380" y="990" as="targetPoint" />
            <Array as="points">
              <mxPoint x="-150" y="1260" />
              <mxPoint x="-150" y="896" />
            </Array>
          </mxGeometry>
        </mxCell>
        <mxCell id="tIqFCr36syXGPRYPaztV-48" value="18" style="ellipse;whiteSpace=wrap;html=1;aspect=fixed;" parent="1" vertex="1">
          <mxGeometry x="-458" y="1340" width="80" height="80" as="geometry" />
        </mxCell>
        <mxCell id="tIqFCr36syXGPRYPaztV-49" value="" style="endArrow=classic;html=1;rounded=0;exitX=0;exitY=0.5;exitDx=0;exitDy=0;entryX=0.5;entryY=0;entryDx=0;entryDy=0;" parent="1" source="tIqFCr36syXGPRYPaztV-19" target="tIqFCr36syXGPRYPaztV-48" edge="1">
          <mxGeometry width="50" height="50" relative="1" as="geometry">
            <mxPoint x="-430" y="1150" as="sourcePoint" />
            <mxPoint x="-380" y="1100" as="targetPoint" />
            <Array as="points">
              <mxPoint x="-690" y="805" />
              <mxPoint x="-690" y="1290" />
              <mxPoint x="-418" y="1290" />
            </Array>
          </mxGeometry>
        </mxCell>
        <mxCell id="tIqFCr36syXGPRYPaztV-50" value="19" style="ellipse;whiteSpace=wrap;html=1;aspect=fixed;" parent="1" vertex="1">
          <mxGeometry x="-458" y="1460" width="80" height="80" as="geometry" />
        </mxCell>
        <mxCell id="tIqFCr36syXGPRYPaztV-51" value="20" style="ellipse;whiteSpace=wrap;html=1;" parent="1" vertex="1">
          <mxGeometry x="-458" y="1570" width="80" height="80" as="geometry" />
        </mxCell>
        <mxCell id="tIqFCr36syXGPRYPaztV-52" value="21" style="ellipse;whiteSpace=wrap;html=1;" parent="1" vertex="1">
          <mxGeometry x="-458" y="1680" width="80" height="80" as="geometry" />
        </mxCell>
        <mxCell id="tIqFCr36syXGPRYPaztV-53" value="22" style="ellipse;whiteSpace=wrap;html=1;aspect=fixed;" parent="1" vertex="1">
          <mxGeometry x="-458" y="1790" width="80" height="80" as="geometry" />
        </mxCell>
        <mxCell id="tIqFCr36syXGPRYPaztV-54" value="23" style="ellipse;whiteSpace=wrap;html=1;" parent="1" vertex="1">
          <mxGeometry x="-290" y="1600" width="80" height="80" as="geometry" />
        </mxCell>
        <mxCell id="tIqFCr36syXGPRYPaztV-55" value="" style="endArrow=classic;html=1;rounded=0;exitX=0.5;exitY=1;exitDx=0;exitDy=0;entryX=0.5;entryY=0;entryDx=0;entryDy=0;" parent="1" source="tIqFCr36syXGPRYPaztV-48" target="tIqFCr36syXGPRYPaztV-50" edge="1">
          <mxGeometry width="50" height="50" relative="1" as="geometry">
            <mxPoint x="-430" y="1700" as="sourcePoint" />
            <mxPoint x="-380" y="1650" as="targetPoint" />
          </mxGeometry>
        </mxCell>
        <mxCell id="tIqFCr36syXGPRYPaztV-56" value="" style="endArrow=classic;html=1;rounded=0;exitX=0.5;exitY=1;exitDx=0;exitDy=0;entryX=0.5;entryY=0;entryDx=0;entryDy=0;" parent="1" source="tIqFCr36syXGPRYPaztV-50" target="tIqFCr36syXGPRYPaztV-51" edge="1">
          <mxGeometry width="50" height="50" relative="1" as="geometry">
            <mxPoint x="-430" y="1700" as="sourcePoint" />
            <mxPoint x="-380" y="1650" as="targetPoint" />
          </mxGeometry>
        </mxCell>
        <mxCell id="tIqFCr36syXGPRYPaztV-57" value="" style="endArrow=classic;html=1;rounded=0;exitX=0.5;exitY=1;exitDx=0;exitDy=0;entryX=0.5;entryY=0;entryDx=0;entryDy=0;" parent="1" source="tIqFCr36syXGPRYPaztV-51" target="tIqFCr36syXGPRYPaztV-52" edge="1">
          <mxGeometry width="50" height="50" relative="1" as="geometry">
            <mxPoint x="-430" y="1700" as="sourcePoint" />
            <mxPoint x="-380" y="1650" as="targetPoint" />
          </mxGeometry>
        </mxCell>
        <mxCell id="tIqFCr36syXGPRYPaztV-58" value="" style="endArrow=classic;html=1;rounded=0;exitX=0.5;exitY=1;exitDx=0;exitDy=0;" parent="1" source="tIqFCr36syXGPRYPaztV-52" target="tIqFCr36syXGPRYPaztV-53" edge="1">
          <mxGeometry width="50" height="50" relative="1" as="geometry">
            <mxPoint x="-430" y="1700" as="sourcePoint" />
            <mxPoint x="-380" y="1650" as="targetPoint" />
          </mxGeometry>
        </mxCell>
        <mxCell id="tIqFCr36syXGPRYPaztV-59" value="" style="endArrow=classic;html=1;rounded=0;exitX=1;exitY=0.5;exitDx=0;exitDy=0;entryX=0.5;entryY=1;entryDx=0;entryDy=0;" parent="1" source="tIqFCr36syXGPRYPaztV-53" target="tIqFCr36syXGPRYPaztV-54" edge="1">
          <mxGeometry width="50" height="50" relative="1" as="geometry">
            <mxPoint x="-430" y="1700" as="sourcePoint" />
            <mxPoint x="-380" y="1650" as="targetPoint" />
            <Array as="points">
              <mxPoint x="-250" y="1830" />
            </Array>
          </mxGeometry>
        </mxCell>
        <mxCell id="tIqFCr36syXGPRYPaztV-60" value="" style="endArrow=classic;html=1;rounded=0;exitX=0.5;exitY=0;exitDx=0;exitDy=0;entryX=1;entryY=0.5;entryDx=0;entryDy=0;" parent="1" source="tIqFCr36syXGPRYPaztV-54" target="tIqFCr36syXGPRYPaztV-50" edge="1">
          <mxGeometry width="50" height="50" relative="1" as="geometry">
            <mxPoint x="-430" y="1700" as="sourcePoint" />
            <mxPoint x="-380" y="1650" as="targetPoint" />
            <Array as="points">
              <mxPoint x="-250" y="1500" />
            </Array>
          </mxGeometry>
        </mxCell>
        <mxCell id="tIqFCr36syXGPRYPaztV-61" value="" style="endArrow=classic;html=1;rounded=0;exitX=0;exitY=0.5;exitDx=0;exitDy=0;" parent="1" source="tIqFCr36syXGPRYPaztV-51" edge="1">
          <mxGeometry width="50" height="50" relative="1" as="geometry">
            <mxPoint x="-430" y="1700" as="sourcePoint" />
            <mxPoint x="-320" y="1830" as="targetPoint" />
            <Array as="points">
              <mxPoint x="-490" y="1610" />
              <mxPoint x="-490" y="1890" />
              <mxPoint x="-320" y="1890" />
            </Array>
          </mxGeometry>
        </mxCell>
        <mxCell id="tIqFCr36syXGPRYPaztV-62" value="24" style="ellipse;whiteSpace=wrap;html=1;aspect=fixed;" parent="1" vertex="1">
          <mxGeometry x="-458" y="1970" width="80" height="80" as="geometry" />
        </mxCell>
        <mxCell id="tIqFCr36syXGPRYPaztV-63" value="" style="endArrow=classic;html=1;rounded=0;exitX=0;exitY=0.5;exitDx=0;exitDy=0;entryX=0.5;entryY=0;entryDx=0;entryDy=0;" parent="1" source="tIqFCr36syXGPRYPaztV-50" target="tIqFCr36syXGPRYPaztV-62" edge="1">
          <mxGeometry width="50" height="50" relative="1" as="geometry">
            <mxPoint x="-430" y="1700" as="sourcePoint" />
            <mxPoint x="-380" y="1650" as="targetPoint" />
            <Array as="points">
              <mxPoint x="-550" y="1500" />
              <mxPoint x="-560" y="1940" />
              <mxPoint x="-418" y="1940" />
            </Array>
          </mxGeometry>
        </mxCell>
        <mxCell id="tIqFCr36syXGPRYPaztV-64" value="25" style="ellipse;whiteSpace=wrap;html=1;aspect=fixed;" parent="1" vertex="1">
          <mxGeometry x="-458" y="2080" width="80" height="80" as="geometry" />
        </mxCell>
        <mxCell id="tIqFCr36syXGPRYPaztV-65" value="26" style="ellipse;whiteSpace=wrap;html=1;aspect=fixed;" parent="1" vertex="1">
          <mxGeometry x="-458" y="2200" width="80" height="80" as="geometry" />
        </mxCell>
        <mxCell id="tIqFCr36syXGPRYPaztV-66" value="" style="endArrow=classic;html=1;rounded=0;exitX=0.5;exitY=1;exitDx=0;exitDy=0;entryX=0.5;entryY=0;entryDx=0;entryDy=0;" parent="1" source="tIqFCr36syXGPRYPaztV-62" target="tIqFCr36syXGPRYPaztV-64" edge="1">
          <mxGeometry width="50" height="50" relative="1" as="geometry">
            <mxPoint x="-430" y="2150" as="sourcePoint" />
            <mxPoint x="-380" y="2100" as="targetPoint" />
          </mxGeometry>
        </mxCell>
        <mxCell id="tIqFCr36syXGPRYPaztV-67" value="" style="endArrow=classic;html=1;rounded=0;exitX=0.5;exitY=1;exitDx=0;exitDy=0;entryX=0.5;entryY=0;entryDx=0;entryDy=0;" parent="1" source="tIqFCr36syXGPRYPaztV-64" target="tIqFCr36syXGPRYPaztV-65" edge="1">
          <mxGeometry width="50" height="50" relative="1" as="geometry">
            <mxPoint x="-430" y="2150" as="sourcePoint" />
            <mxPoint x="-380" y="2100" as="targetPoint" />
          </mxGeometry>
        </mxCell>
        <mxCell id="tIqFCr36syXGPRYPaztV-70" value="27" style="ellipse;whiteSpace=wrap;html=1;aspect=fixed;" parent="1" vertex="1">
          <mxGeometry x="-458" y="2338" width="80" height="80" as="geometry" />
        </mxCell>
        <mxCell id="tIqFCr36syXGPRYPaztV-71" value="" style="endArrow=classic;html=1;rounded=0;exitX=0;exitY=0.5;exitDx=0;exitDy=0;entryX=0.5;entryY=0;entryDx=0;entryDy=0;" parent="1" source="tIqFCr36syXGPRYPaztV-62" target="tIqFCr36syXGPRYPaztV-70" edge="1">
          <mxGeometry width="50" height="50" relative="1" as="geometry">
            <mxPoint x="-430" y="2260" as="sourcePoint" />
            <mxPoint x="-380" y="2210" as="targetPoint" />
            <Array as="points">
              <mxPoint x="-520" y="2010" />
              <mxPoint x="-520" y="2310" />
              <mxPoint x="-418" y="2310" />
            </Array>
          </mxGeometry>
        </mxCell>
        <mxCell id="tIqFCr36syXGPRYPaztV-72" value="28" style="ellipse;whiteSpace=wrap;html=1;" parent="1" vertex="1">
          <mxGeometry x="-280" y="2450" width="80" height="80" as="geometry" />
        </mxCell>
        <mxCell id="tIqFCr36syXGPRYPaztV-73" value="29&lt;br&gt;" style="ellipse;whiteSpace=wrap;html=1;" parent="1" vertex="1">
          <mxGeometry x="-280" y="2580" width="80" height="80" as="geometry" />
        </mxCell>
        <mxCell id="tIqFCr36syXGPRYPaztV-74" value="30&lt;br&gt;" style="ellipse;whiteSpace=wrap;html=1;" parent="1" vertex="1">
          <mxGeometry x="-280" y="2690" width="80" height="80" as="geometry" />
        </mxCell>
        <mxCell id="tIqFCr36syXGPRYPaztV-75" value="31" style="ellipse;whiteSpace=wrap;html=1;" parent="1" vertex="1">
          <mxGeometry x="-120" y="2630" width="80" height="80" as="geometry" />
        </mxCell>
        <mxCell id="tIqFCr36syXGPRYPaztV-76" value="" style="endArrow=classic;html=1;rounded=0;exitX=1.006;exitY=0.516;exitDx=0;exitDy=0;entryX=0.5;entryY=0;entryDx=0;entryDy=0;exitPerimeter=0;" parent="1" source="tIqFCr36syXGPRYPaztV-70" target="tIqFCr36syXGPRYPaztV-72" edge="1">
          <mxGeometry width="50" height="50" relative="1" as="geometry">
            <mxPoint x="-470" y="2630" as="sourcePoint" />
            <mxPoint x="-420" y="2580" as="targetPoint" />
            <Array as="points">
              <mxPoint x="-240" y="2379" />
            </Array>
          </mxGeometry>
        </mxCell>
        <mxCell id="tIqFCr36syXGPRYPaztV-77" value="" style="endArrow=classic;html=1;rounded=0;exitX=0.5;exitY=1;exitDx=0;exitDy=0;" parent="1" source="tIqFCr36syXGPRYPaztV-72" target="tIqFCr36syXGPRYPaztV-73" edge="1">
          <mxGeometry width="50" height="50" relative="1" as="geometry">
            <mxPoint x="-410" y="2640" as="sourcePoint" />
            <mxPoint x="-360" y="2590" as="targetPoint" />
          </mxGeometry>
        </mxCell>
        <mxCell id="tIqFCr36syXGPRYPaztV-78" value="" style="endArrow=classic;html=1;rounded=0;exitX=0.5;exitY=1;exitDx=0;exitDy=0;entryX=0.5;entryY=0;entryDx=0;entryDy=0;" parent="1" source="tIqFCr36syXGPRYPaztV-73" target="tIqFCr36syXGPRYPaztV-74" edge="1">
          <mxGeometry width="50" height="50" relative="1" as="geometry">
            <mxPoint x="-410" y="2640" as="sourcePoint" />
            <mxPoint x="-360" y="2590" as="targetPoint" />
          </mxGeometry>
        </mxCell>
        <mxCell id="tIqFCr36syXGPRYPaztV-79" value="" style="endArrow=classic;html=1;rounded=0;exitX=1;exitY=0.5;exitDx=0;exitDy=0;entryX=0.5;entryY=1;entryDx=0;entryDy=0;" parent="1" source="tIqFCr36syXGPRYPaztV-74" target="tIqFCr36syXGPRYPaztV-75" edge="1">
          <mxGeometry width="50" height="50" relative="1" as="geometry">
            <mxPoint x="-410" y="2640" as="sourcePoint" />
            <mxPoint x="-360" y="2590" as="targetPoint" />
            <Array as="points">
              <mxPoint x="-80" y="2730" />
            </Array>
          </mxGeometry>
        </mxCell>
        <mxCell id="tIqFCr36syXGPRYPaztV-80" value="" style="endArrow=classic;html=1;rounded=0;exitX=0.5;exitY=0;exitDx=0;exitDy=0;entryX=0.959;entryY=0.281;entryDx=0;entryDy=0;entryPerimeter=0;" parent="1" source="tIqFCr36syXGPRYPaztV-75" target="tIqFCr36syXGPRYPaztV-73" edge="1">
          <mxGeometry width="50" height="50" relative="1" as="geometry">
            <mxPoint x="-410" y="2640" as="sourcePoint" />
            <mxPoint x="-360" y="2590" as="targetPoint" />
            <Array as="points">
              <mxPoint x="-80" y="2602" />
            </Array>
          </mxGeometry>
        </mxCell>
        <mxCell id="tIqFCr36syXGPRYPaztV-81" value="32" style="ellipse;whiteSpace=wrap;html=1;aspect=fixed;" parent="1" vertex="1">
          <mxGeometry x="-660" y="2450" width="80" height="80" as="geometry" />
        </mxCell>
        <mxCell id="tIqFCr36syXGPRYPaztV-82" value="" style="endArrow=classic;html=1;rounded=0;entryX=0.5;entryY=0;entryDx=0;entryDy=0;" parent="1" target="tIqFCr36syXGPRYPaztV-81" edge="1">
          <mxGeometry width="50" height="50" relative="1" as="geometry">
            <mxPoint x="-460" y="2380" as="sourcePoint" />
            <mxPoint x="-420" y="2700" as="targetPoint" />
            <Array as="points">
              <mxPoint x="-620" y="2380" />
            </Array>
          </mxGeometry>
        </mxCell>
        <mxCell id="tIqFCr36syXGPRYPaztV-83" value="33" style="ellipse;whiteSpace=wrap;html=1;aspect=fixed;" parent="1" vertex="1">
          <mxGeometry x="-660" y="2560" width="80" height="80" as="geometry" />
        </mxCell>
        <mxCell id="tIqFCr36syXGPRYPaztV-84" value="34" style="ellipse;whiteSpace=wrap;html=1;aspect=fixed;" parent="1" vertex="1">
          <mxGeometry x="-660" y="2670" width="80" height="80" as="geometry" />
        </mxCell>
        <mxCell id="tIqFCr36syXGPRYPaztV-85" value="35" style="ellipse;whiteSpace=wrap;html=1;aspect=fixed;" parent="1" vertex="1">
          <mxGeometry x="-510" y="2610" width="80" height="80" as="geometry" />
        </mxCell>
        <mxCell id="tIqFCr36syXGPRYPaztV-86" value="" style="endArrow=classic;html=1;rounded=0;exitX=0.5;exitY=1;exitDx=0;exitDy=0;entryX=0.5;entryY=0;entryDx=0;entryDy=0;" parent="1" source="tIqFCr36syXGPRYPaztV-81" target="tIqFCr36syXGPRYPaztV-83" edge="1">
          <mxGeometry width="50" height="50" relative="1" as="geometry">
            <mxPoint x="-470" y="2630" as="sourcePoint" />
            <mxPoint x="-420" y="2580" as="targetPoint" />
          </mxGeometry>
        </mxCell>
        <mxCell id="tIqFCr36syXGPRYPaztV-87" value="" style="endArrow=classic;html=1;rounded=0;exitX=0.5;exitY=1;exitDx=0;exitDy=0;entryX=0.5;entryY=0;entryDx=0;entryDy=0;" parent="1" source="tIqFCr36syXGPRYPaztV-83" target="tIqFCr36syXGPRYPaztV-84" edge="1">
          <mxGeometry width="50" height="50" relative="1" as="geometry">
            <mxPoint x="-470" y="2630" as="sourcePoint" />
            <mxPoint x="-420" y="2580" as="targetPoint" />
          </mxGeometry>
        </mxCell>
        <mxCell id="tIqFCr36syXGPRYPaztV-88" value="" style="endArrow=classic;html=1;rounded=0;exitX=0.99;exitY=0.631;exitDx=0;exitDy=0;exitPerimeter=0;entryX=0.5;entryY=1;entryDx=0;entryDy=0;" parent="1" source="tIqFCr36syXGPRYPaztV-84" target="tIqFCr36syXGPRYPaztV-85" edge="1">
          <mxGeometry width="50" height="50" relative="1" as="geometry">
            <mxPoint x="-470" y="2630" as="sourcePoint" />
            <mxPoint x="-420" y="2580" as="targetPoint" />
            <Array as="points">
              <mxPoint x="-470" y="2720" />
            </Array>
          </mxGeometry>
        </mxCell>
        <mxCell id="tIqFCr36syXGPRYPaztV-89" value="" style="endArrow=classic;html=1;rounded=0;exitX=0.5;exitY=0;exitDx=0;exitDy=0;entryX=1;entryY=0.5;entryDx=0;entryDy=0;" parent="1" source="tIqFCr36syXGPRYPaztV-85" target="tIqFCr36syXGPRYPaztV-83" edge="1">
          <mxGeometry width="50" height="50" relative="1" as="geometry">
            <mxPoint x="-470" y="2630" as="sourcePoint" />
            <mxPoint x="-420" y="2580" as="targetPoint" />
            <Array as="points">
              <mxPoint x="-470" y="2600" />
            </Array>
          </mxGeometry>
        </mxCell>
        <mxCell id="tIqFCr36syXGPRYPaztV-90" value="36" style="ellipse;whiteSpace=wrap;html=1;" parent="1" vertex="1">
          <mxGeometry x="-458" y="2790" width="80" height="80" as="geometry" />
        </mxCell>
        <mxCell id="tIqFCr36syXGPRYPaztV-91" value="" style="endArrow=classic;html=1;rounded=0;exitX=0;exitY=0.5;exitDx=0;exitDy=0;entryX=0.5;entryY=0;entryDx=0;entryDy=0;" parent="1" source="tIqFCr36syXGPRYPaztV-83" target="tIqFCr36syXGPRYPaztV-90" edge="1">
          <mxGeometry width="50" height="50" relative="1" as="geometry">
            <mxPoint x="-430" y="2770" as="sourcePoint" />
            <mxPoint x="-380" y="2720" as="targetPoint" />
            <Array as="points">
              <mxPoint x="-710" y="2600" />
              <mxPoint x="-710" y="2770" />
              <mxPoint x="-418" y="2770" />
            </Array>
          </mxGeometry>
        </mxCell>
        <mxCell id="tIqFCr36syXGPRYPaztV-92" value="" style="endArrow=classic;html=1;rounded=0;exitX=0;exitY=0.5;exitDx=0;exitDy=0;" parent="1" source="tIqFCr36syXGPRYPaztV-73" edge="1">
          <mxGeometry width="50" height="50" relative="1" as="geometry">
            <mxPoint x="-430" y="2770" as="sourcePoint" />
            <mxPoint x="-430" y="2770" as="targetPoint" />
            <Array as="points">
              <mxPoint x="-400" y="2620" />
              <mxPoint x="-400" y="2740" />
              <mxPoint x="-430" y="2740" />
            </Array>
          </mxGeometry>
        </mxCell>
        <mxCell id="tIqFCr36syXGPRYPaztV-93" value="37" style="ellipse;whiteSpace=wrap;html=1;aspect=fixed;" parent="1" vertex="1">
          <mxGeometry x="-458" y="2923" width="80" height="80" as="geometry" />
        </mxCell>
        <mxCell id="tIqFCr36syXGPRYPaztV-94" value="" style="endArrow=classic;html=1;rounded=0;exitX=0.5;exitY=1;exitDx=0;exitDy=0;entryX=0.5;entryY=0;entryDx=0;entryDy=0;" parent="1" source="tIqFCr36syXGPRYPaztV-90" target="tIqFCr36syXGPRYPaztV-93" edge="1">
          <mxGeometry width="50" height="50" relative="1" as="geometry">
            <mxPoint x="-430" y="2870" as="sourcePoint" />
            <mxPoint x="-380" y="2820" as="targetPoint" />
          </mxGeometry>
        </mxCell>
        <mxCell id="tIqFCr36syXGPRYPaztV-96" value="" style="endArrow=classic;html=1;rounded=0;exitX=0.5;exitY=1;exitDx=0;exitDy=0;" parent="1" source="tIqFCr36syXGPRYPaztV-93" edge="1">
          <mxGeometry width="50" height="50" relative="1" as="geometry">
            <mxPoint x="-430" y="2870" as="sourcePoint" />
            <mxPoint x="-418" y="3110" as="targetPoint" />
          </mxGeometry>
        </mxCell>
        <mxCell id="tIqFCr36syXGPRYPaztV-98" value="39" style="ellipse;whiteSpace=wrap;html=1;aspect=fixed;" parent="1" vertex="1">
          <mxGeometry x="-458" y="3110" width="80" height="80" as="geometry" />
        </mxCell>
      </root>
    </mxGraphModel>
  </diagram>
</mxfile>
